<?xml version="1.0" encoding="UTF-8"?>
<svg id="Layer_1" xmlns="http://www.w3.org/2000/svg" version="1.1" viewBox="0 0 512 512">
  <!-- Generator: Adobe Illustrator 30.0.0, SVG Export Plug-In . SVG Version: 2.1.1 Build 123)  -->
  <defs>
    <style>
      .st0 {
        fill: #c6a75a;
      }
    </style>
  </defs>
  <path class="st0" d="M220.12,410.88c14.46-.05,26.52-11.07,27.88-25.46l19.78-223.92c9.57-10.88,16.21-24.02,19.27-38.18,6.31-2.72,10.41-8.92,10.43-15.8v-12.29c-.04-7.67-5.08-14.41-12.43-16.6-14.23-45.62-62.75-71.07-108.37-56.84-27.13,8.46-48.38,29.71-56.84,56.84-7.35,2.19-12.41,8.93-12.45,16.6v12.29c.02,6.86,4.12,13.04,10.42,15.73,3.11,14.12,9.74,27.22,19.28,38.09l19.64,224.14c1.33,14.4,13.41,25.41,27.87,25.39h10.14v30.88c.03,28.88,23.44,52.29,52.32,52.32h11.2c28.88-.03,52.29-23.44,52.32-52.32v-76.16c.24-20.41,16.98-36.76,37.39-36.52,20.07.24,36.29,16.45,36.52,36.52v53.28c0,4.24,3.44,7.68,7.68,7.68s7.68-3.44,7.68-7.68v-53.28c-.29-28.89-23.94-52.09-52.84-51.8-28.49.28-51.52,23.31-51.8,51.8v76.16c-.02,20.4-16.56,36.94-36.96,36.96h-11.2c-20.4-.02-36.94-16.56-36.96-36.96v-30.88h10.02ZM280.06,93.18c1.11.05,2,.94,2.05,2.05v12.29c-.02.96-.73,1.77-1.68,1.93H124.78c-1.08,0-1.97-.85-2.04-1.93v-12.29c.05-1.11.94-2,2.05-2.05h155.27ZM202.42,33.28c29.08-.09,55.27,17.56,66.1,44.54h-132.2c10.83-26.98,37.02-44.63,66.1-44.54ZM270.85,124.81c-2.75,9.51-7.5,18.32-13.94,25.85l-108.94-.12c-6.4-7.51-11.15-16.27-13.95-25.73h136.83ZM251.94,166.02l-15.4,174.6h-68.33l-15.3-174.73,99.03.13ZM172.03,384.07l-2.46-28.09h65.6l-2.48,28.11c-.62,6.48-6.07,11.42-12.57,11.43h-35.52c-6.48-.08-11.88-5-12.56-11.45Z"/>
  <path class="st0" d="M202.42,248.12c4.24,0,7.68-3.44,7.68-7.68v-33.97c0-4.24-3.44-7.68-7.68-7.68s-7.68,3.44-7.68,7.68v33.97c0,4.24,3.44,7.68,7.68,7.68Z"/>
</svg>